<?xml version="1.0" encoding="utf-8"?><svg xmlns="http://www.w3.org/2000/svg" xmlns:xlink="http://www.w3.org/1999/xlink"><symbol viewBox="0 0 16 14" id="headphones" xmlns="http://www.w3.org/2000/svg"><path d="M4 14V7c-2.69 0-4 1.728-4 3.5C0 12.286 1.33 14 4 14Zm12-3.5C16 8.728 14.69 7 12 7v7c2.67 0 4-1.714 4-3.5ZM8 1.895C5.414 1.89 3.426 3.39 2.838 5.837a6.03 6.03 0 0 0-1.44.456C1.816 2.793 4.276 0 8 0c3.726 0 6.193 2.793 6.61 6.297a6.012 6.012 0 0 0-1.445-.458C12.577 3.389 10.587 1.89 8 1.895Z"/></symbol><symbol viewBox="0 0 18 18" id="search" xmlns="http://www.w3.org/2000/svg"><path d="m18 16.235-4.691-4.654a7.222 7.222 0 0 0 1.404-4.283c0-4.024-3.3-7.298-7.357-7.298C3.3 0 0 3.274 0 7.298s3.3 7.297 7.356 7.297a7.35 7.35 0 0 0 4.148-1.274L16.22 18 18 16.235ZM2.158 7.296c0-2.843 2.332-5.157 5.199-5.157s5.199 2.313 5.199 5.158c0 2.844-2.332 5.157-5.2 5.157-2.867 0-5.198-2.313-5.198-5.157Z"/></symbol></svg>